<svg version="1.1" id="Layer_1" xmlns="http://www.w3.org/2000/svg" xmlns:xlink="http://www.w3.org/1999/xlink" x="0px" y="0px"
	 width="100%" viewBox="0 0 256 256" enable-background="new 0 0 256 256" xml:space="preserve">
<path fill="#000000" opacity="1.000000" stroke="none" 
	d="
M1.000000,186.000000 
	C1.000000,148.312439 1.000000,110.624878 1.345757,72.387131 
	C13.843925,63.336521 25.853569,54.618881 38.241535,46.476856 
	C41.661945,44.228779 42.083172,41.799103 42.039726,38.383789 
	C41.923252,29.227337 42.109997,20.066509 41.950394,10.911359 
	C41.878086,6.763869 43.304153,4.939000 47.683266,4.945708 
	C101.964699,5.028857 156.246338,5.020465 210.527832,4.958898 
	C214.604126,4.954274 216.102341,6.644072 216.045776,10.622674 
	C215.906097,20.444651 215.950607,30.270460 216.051727,40.093380 
	C216.067413,41.617943 216.260620,43.860432 217.234436,44.546661 
	C230.400406,53.824394 243.719086,62.885387 257.000000,72.000000 
	C257.000000,109.687561 257.000000,147.375122 256.594696,185.667465 
	C254.448288,186.514832 252.708282,186.958115 250.965912,186.967545 
	C239.381470,187.030197 227.796509,187.000000 215.999985,187.000000 
	C215.999985,207.525543 215.946579,227.479691 216.044846,247.433105 
	C216.064621,251.445953 214.513779,253.046707 210.474731,253.042038 
	C156.206116,252.979263 101.937363,252.970917 47.668804,253.054535 
	C43.276928,253.061310 41.924919,251.207977 41.950634,247.077103 
	C42.064621,228.766281 42.000004,210.454376 42.000000,192.142853 
	C42.000000,190.532776 42.000000,188.922699 42.000000,187.000000 
	C29.912790,187.000000 18.295040,187.044693 6.678323,186.955185 
	C4.783209,186.940582 2.892659,186.333328 1.000000,186.000000 
M97.500000,80.000000 
	C68.405441,80.000000 39.310883,80.000000 10.288548,80.000000 
	C10.288548,112.978058 10.288548,145.381882 10.288548,177.713318 
	C89.645180,177.713318 168.712936,177.713318 247.711487,177.713318 
	C247.711487,145.022018 247.711487,112.618210 247.711487,80.000000 
	C197.782196,80.000000 148.141098,80.000000 97.500000,80.000000 
M125.500000,14.000000 
	C100.741386,14.000000 75.982773,14.000000 51.279610,14.000000 
	C51.279610,33.304802 51.279610,52.043262 51.279610,70.716965 
	C54.972336,70.716965 58.379208,70.716965 62.000000,70.716965 
	C62.000000,66.293098 61.980190,62.150101 62.004681,58.007366 
	C62.040737,51.907452 63.894020,50.001774 69.765007,50.001381 
	C109.255432,49.998737 148.745850,49.998730 188.236282,50.001381 
	C194.106140,50.001774 195.959900,51.908066 195.995224,58.008656 
	C196.019943,62.277248 196.000000,66.546097 196.000000,70.707764 
	C199.989487,70.707764 203.396439,70.707764 206.708588,70.707764 
	C206.708588,51.678387 206.708588,32.942616 206.708588,14.000000 
	C179.778473,14.000000 153.139236,14.000000 125.500000,14.000000 
M84.500000,244.000000 
	C125.255287,244.000000 166.010574,244.000000 206.724396,244.000000 
	C206.724396,224.703568 206.724396,205.965225 206.724396,187.278839 
	C203.035919,187.278839 199.629272,187.278839 196.363510,187.278839 
	C196.173355,187.700180 196.053680,187.842300 196.052795,187.985168 
	C196.027832,191.983749 196.025833,195.982483 195.997452,199.981033 
	C195.954117,206.086929 194.107422,207.998184 188.246597,207.998581 
	C148.756180,208.001297 109.265755,208.001236 69.775330,207.998657 
	C63.895241,207.998276 62.040955,206.097610 62.004875,200.002960 
	C61.979595,195.732971 62.000000,191.462723 62.000000,187.288025 
	C58.017509,187.288025 54.610439,187.288025 51.287308,187.288025 
	C51.287308,206.313171 51.287308,225.048950 51.287308,244.000000 
	C62.215542,244.000000 72.857773,244.000000 84.500000,244.000000 
M135.500000,59.000000 
	C114.404037,59.000000 93.308083,59.000000 72.287483,59.000000 
	C72.287483,63.313103 72.287483,67.053848 72.287483,70.716866 
	C110.311920,70.716866 148.048203,70.716866 185.712555,70.716866 
	C185.712555,66.686195 185.712555,62.945129 185.712555,59.000000 
	C169.117355,59.000000 152.808685,59.000000 135.500000,59.000000 
M162.499969,199.000000 
	C170.267120,199.000000 178.034271,199.000000 185.710052,199.000000 
	C185.710052,194.682083 185.710052,190.941269 185.710052,187.285522 
	C147.683121,187.285522 109.946831,187.285522 72.289925,187.285522 
	C72.289925,191.317856 72.289925,195.058685 72.289925,199.000000 
	C102.219551,199.000000 131.859772,199.000000 162.499969,199.000000 
M224.528519,71.000000 
	C228.867676,71.000000 233.206818,71.000000 238.405334,71.000000 
	C230.587631,65.526413 223.622940,60.650066 216.319397,55.536476 
	C216.319397,61.150974 216.319397,66.000748 216.319397,71.000000 
	C218.942047,71.000000 221.246201,71.000000 224.528519,71.000000 
M27.041061,65.446815 
	C24.841812,67.177223 22.642561,68.907631 20.262733,70.780121 
	C27.574867,70.780121 34.613621,70.780121 41.632050,70.780121 
	C41.632050,65.739983 41.632050,60.928764 41.632050,55.716282 
	C36.678123,59.018490 32.168415,62.024593 27.041061,65.446815 
z"/>
<path fill="#FFFFFF" opacity="1.000000" stroke="none" 
	d="
M1.000000,186.468658 
	C2.892659,186.333328 4.783209,186.940582 6.678323,186.955185 
	C18.295040,187.044693 29.912790,187.000000 42.000000,187.000000 
	C42.000000,188.922699 42.000000,190.532776 42.000000,192.142853 
	C42.000004,210.454376 42.064621,228.766281 41.950634,247.077103 
	C41.924919,251.207977 43.276928,253.061310 47.668804,253.054535 
	C101.937363,252.970917 156.206116,252.979263 210.474731,253.042038 
	C214.513779,253.046707 216.064621,251.445953 216.044846,247.433105 
	C215.946579,227.479691 215.999985,207.525543 215.999985,187.000000 
	C227.796509,187.000000 239.381470,187.030197 250.965912,186.967545 
	C252.708282,186.958115 254.448288,186.514832 256.594696,186.136124 
	C257.000000,209.640625 257.000000,233.281250 257.000000,256.960938 
	C171.786606,256.960938 86.573181,256.960938 1.000000,256.960938 
	C1.000000,233.647003 1.000000,210.292160 1.000000,186.468658 
z"/>
<path fill="#FFFFFF" opacity="1.000000" stroke="none" 
	d="
M257.000000,71.531342 
	C243.719086,62.885387 230.400406,53.824394 217.234436,44.546661 
	C216.260620,43.860432 216.067413,41.617943 216.051727,40.093380 
	C215.950607,30.270460 215.906097,20.444651 216.045776,10.622674 
	C216.102341,6.644072 214.604126,4.954274 210.527832,4.958898 
	C156.246338,5.020465 101.964699,5.028857 47.683266,4.945708 
	C43.304153,4.939000 41.878086,6.763869 41.950394,10.911359 
	C42.109997,20.066509 41.923252,29.227337 42.039726,38.383789 
	C42.083172,41.799103 41.661945,44.228779 38.241535,46.476856 
	C25.853569,54.618881 13.843925,63.336521 1.345757,71.918472 
	C1.000000,48.359367 1.000000,24.718733 1.000000,1.039050 
	C86.213417,1.039050 171.426849,1.039050 257.000000,1.039050 
	C257.000000,24.352997 257.000000,47.707840 257.000000,71.531342 
z"/>
<path fill="#FFFFFF" opacity="1.000000" stroke="none" 
	d="
M98.000000,80.000000 
	C148.141098,80.000000 197.782196,80.000000 247.711487,80.000000 
	C247.711487,112.618210 247.711487,145.022018 247.711487,177.713318 
	C168.712936,177.713318 89.645180,177.713318 10.288548,177.713318 
	C10.288548,145.381882 10.288548,112.978058 10.288548,80.000000 
	C39.310883,80.000000 68.405441,80.000000 98.000000,80.000000 
M167.035553,125.390823 
	C167.604889,126.373589 168.199402,127.342781 168.738419,128.341888 
	C169.913635,130.520233 170.187759,133.165741 173.929077,133.145370 
	C177.648926,133.125122 178.668747,130.689148 179.938385,128.298981 
	C181.849731,124.700851 183.541107,120.985847 185.325989,117.320534 
	C186.000000,131.442413 186.059692,145.368652 185.961624,159.293762 
	C185.934158,163.194794 187.208511,166.765549 191.152603,166.708511 
	C194.701920,166.657166 196.050858,163.197235 196.036758,159.481247 
	C195.959564,139.152206 195.987396,118.822716 196.013123,98.493423 
	C196.017120,95.334541 195.347961,91.887482 191.962128,91.803337 
	C189.839890,91.750610 186.815552,94.029366 185.638412,96.087173 
	C181.606522,103.135422 178.211884,110.548195 174.283966,118.402351 
	C170.122650,110.186218 166.355270,102.367340 162.168884,94.779633 
	C161.250031,93.114227 158.801208,91.286469 157.130005,91.353546 
	C155.733490,91.409584 154.183121,93.980118 153.205582,95.720581 
	C152.629150,96.746857 153.005051,98.325165 153.004593,99.655212 
	C152.997925,119.151367 152.999847,138.647522 153.000351,158.143677 
	C153.000381,159.310104 152.546936,160.802231 153.098495,161.579041 
	C154.493942,163.544357 156.342010,165.188248 158.008774,166.960907 
	C159.392365,165.420395 161.108414,164.057587 162.056320,162.284195 
	C162.841202,160.815720 162.953415,158.864120 162.962723,157.124420 
	C163.031570,144.251694 163.000000,131.378448 163.000000,117.304260 
	C164.727081,120.491333 165.846313,122.556686 167.035553,125.390823 
M105.000000,122.500252 
	C104.999992,116.833595 105.052986,111.166313 104.986389,105.500443 
	C104.905434,98.612915 101.541069,93.609962 94.657974,92.075859 
	C89.608246,90.950371 84.230484,91.089058 78.995651,91.044075 
	C67.396324,90.944382 62.019650,96.385826 62.004475,108.011703 
	C61.985764,122.344887 62.000000,136.678101 62.000000,151.011307 
	C62.000000,153.344620 62.121849,155.685730 61.973083,158.009521 
	C61.712574,162.078873 62.391285,165.790482 66.900177,166.857040 
	C69.826851,167.549347 71.994522,163.605515 71.998947,158.260361 
	C72.003647,152.593750 72.000000,146.927124 72.000000,141.260513 
	C72.000000,138.971191 72.000000,136.681870 72.000000,134.201172 
	C79.798790,134.201172 87.203842,134.201172 95.000000,134.201172 
	C95.000000,141.851685 94.999313,149.307816 95.000626,156.763962 
	C95.000862,158.097244 94.762848,159.489380 95.064224,160.751831 
	C95.738411,163.575958 96.578941,167.115250 100.114937,166.774780 
	C103.437622,166.454849 105.044456,163.582932 105.025093,159.999695 
	C104.959335,147.833481 104.999985,135.666718 105.000000,122.500252 
M127.560921,124.000000 
	C126.228958,124.000000 124.896996,124.003273 123.565041,123.999443 
	C117.467888,123.981918 117.016083,123.535995 117.001534,117.473587 
	C116.993134,113.977180 117.174026,110.469894 116.956810,106.987022 
	C116.672813,102.433281 118.639259,100.789017 123.110191,100.938133 
	C130.095245,101.171066 137.102188,101.198257 144.082733,100.905151 
	C147.103485,100.778320 150.380981,99.779465 149.949707,95.593002 
	C149.583038,92.033501 147.124496,90.931694 143.773773,90.973015 
	C136.615540,91.061302 129.455170,90.960922 122.296173,91.010078 
	C113.604759,91.069756 107.107483,97.658119 107.903809,105.600189 
	C108.416176,110.710205 107.977631,115.913429 108.005852,121.074661 
	C108.038719,127.085487 111.682976,132.003159 117.790787,132.894211 
	C123.770073,133.766510 129.887344,133.799271 135.950302,133.951035 
	C139.486404,134.039520 141.102463,135.492416 141.021011,139.044083 
	C140.929428,143.037888 140.823013,147.045349 141.046600,151.028717 
	C141.302811,155.592987 139.332642,157.210434 134.874161,157.061905 
	C127.889099,156.829224 120.881554,156.794998 113.901909,157.098801 
	C110.898476,157.229538 107.604965,158.237366 108.051338,162.422424 
	C108.430313,165.975449 110.892548,167.070480 114.241890,167.027863 
	C121.400070,166.936737 128.560547,167.043381 135.719452,166.988815 
	C144.397186,166.922668 150.895935,160.348938 150.096222,152.384140 
	C149.583160,147.274277 149.968140,142.070770 150.009750,136.909729 
	C150.045181,132.517838 147.965775,129.494263 144.522858,126.868698 
	C139.579895,123.099213 133.974640,124.267654 127.560921,124.000000 
z"/>
<path fill="#FFFFFF" opacity="1.000000" stroke="none" 
	d="
M126.000000,14.000000 
	C153.139236,14.000000 179.778473,14.000000 206.708588,14.000000 
	C206.708588,32.942616 206.708588,51.678387 206.708588,70.707764 
	C203.396439,70.707764 199.989487,70.707764 196.000000,70.707764 
	C196.000000,66.546097 196.019943,62.277248 195.995224,58.008656 
	C195.959900,51.908066 194.106140,50.001774 188.236282,50.001381 
	C148.745850,49.998730 109.255432,49.998737 69.765007,50.001381 
	C63.894020,50.001774 62.040737,51.907452 62.004681,58.007366 
	C61.980190,62.150101 62.000000,66.293098 62.000000,70.716965 
	C58.379208,70.716965 54.972336,70.716965 51.279610,70.716965 
	C51.279610,52.043262 51.279610,33.304802 51.279610,14.000000 
	C75.982773,14.000000 100.741386,14.000000 126.000000,14.000000 
M150.500000,38.000000 
	C128.066757,38.000000 105.633522,38.000000 83.285706,38.000000 
	C83.285706,41.310795 83.285706,44.048740 83.285706,46.718979 
	C113.980515,46.718979 144.388794,46.718979 174.714310,46.718979 
	C174.714310,43.691547 174.714310,40.952408 174.714310,38.000000 
	C166.787186,38.000000 159.143585,38.000000 150.500000,38.000000 
M161.255219,25.003260 
	C139.188858,25.003260 117.122498,25.003260 95.001167,25.003260 
	C95.001167,27.723894 94.597908,29.840986 95.138130,31.681097 
	C95.519875,32.981377 97.171158,34.849022 98.270576,34.859230 
	C118.762108,35.049465 139.256119,35.033756 159.748550,34.901024 
	C160.830322,34.894016 162.756912,33.531033 162.819534,32.689800 
	C163.007034,30.171558 162.463745,27.598902 161.255219,25.003260 
z"/>
<path fill="#FFFFFF" opacity="1.000000" stroke="none" 
	d="
M84.000000,244.000000 
	C72.857773,244.000000 62.215542,244.000000 51.287308,244.000000 
	C51.287308,225.048950 51.287308,206.313171 51.287308,187.288025 
	C54.610439,187.288025 58.017509,187.288025 62.000000,187.288025 
	C62.000000,191.462723 61.979595,195.732971 62.004875,200.002960 
	C62.040955,206.097610 63.895241,207.998276 69.775330,207.998657 
	C109.265755,208.001236 148.756180,208.001297 188.246597,207.998581 
	C194.107422,207.998184 195.954117,206.086929 195.997452,199.981033 
	C196.025833,195.982483 196.027832,191.983749 196.052795,187.985168 
	C196.053680,187.842300 196.173355,187.700180 196.363510,187.278839 
	C199.629272,187.278839 203.035919,187.278839 206.724396,187.278839 
	C206.724396,205.965225 206.724396,224.703568 206.724396,244.000000 
	C166.010574,244.000000 125.255287,244.000000 84.000000,244.000000 
M163.482697,220.000000 
	C167.258255,220.000000 171.033798,220.000000 174.718140,220.000000 
	C174.718140,216.698883 174.718140,213.959854 174.718140,211.278473 
	C144.026520,211.278473 113.617577,211.278473 83.282982,211.278473 
	C83.282982,214.303253 83.282982,217.042328 83.282982,220.000000 
	C109.873146,220.000000 136.181015,220.000000 163.482697,220.000000 
M162.967957,224.894821 
	C161.260468,224.263214 159.556976,223.095291 157.844894,223.082565 
	C139.848709,222.948944 121.850807,222.934967 103.854103,223.026840 
	C94.562805,223.074265 94.839890,220.884995 95.069603,232.191116 
	C95.072197,232.318497 95.242493,232.442474 95.400299,232.657837 
	C117.868752,232.657837 140.401382,232.657837 162.997772,232.657837 
	C162.997772,230.150131 162.997772,227.984512 162.967957,224.894821 
z"/>
<path fill="#FFFFFF" opacity="1.000000" stroke="none" 
	d="
M136.000000,59.000000 
	C152.808685,59.000000 169.117355,59.000000 185.712555,59.000000 
	C185.712555,62.945129 185.712555,66.686195 185.712555,70.716866 
	C148.048203,70.716866 110.311920,70.716866 72.287483,70.716866 
	C72.287483,67.053848 72.287483,63.313103 72.287483,59.000000 
	C93.308083,59.000000 114.404037,59.000000 136.000000,59.000000 
z"/>
<path fill="#FFFFFF" opacity="1.000000" stroke="none" 
	d="
M161.999985,199.000000 
	C131.859772,199.000000 102.219551,199.000000 72.289925,199.000000 
	C72.289925,195.058685 72.289925,191.317856 72.289925,187.285522 
	C109.946831,187.285522 147.683121,187.285522 185.710052,187.285522 
	C185.710052,190.941269 185.710052,194.682083 185.710052,199.000000 
	C178.034271,199.000000 170.267120,199.000000 161.999985,199.000000 
z"/>
<path fill="#FFFFFF" opacity="1.000000" stroke="none" 
	d="
M224.039429,71.000000 
	C221.246201,71.000000 218.942047,71.000000 216.319397,71.000000 
	C216.319397,66.000748 216.319397,61.150974 216.319397,55.536476 
	C223.622940,60.650066 230.587631,65.526413 238.405334,71.000000 
	C233.206818,71.000000 228.867676,71.000000 224.039429,71.000000 
z"/>
<path fill="#FFFFFF" opacity="1.000000" stroke="none" 
	d="
M27.349884,65.238754 
	C32.168415,62.024593 36.678123,59.018490 41.632050,55.716282 
	C41.632050,60.928764 41.632050,65.739983 41.632050,70.780121 
	C34.613621,70.780121 27.574867,70.780121 20.262733,70.780121 
	C22.642561,68.907631 24.841812,67.177223 27.349884,65.238754 
z"/>
<path fill="#000000" opacity="1.000000" stroke="none" 
	d="
M167.000549,125.006432 
	C165.846313,122.556686 164.727081,120.491333 163.000000,117.304260 
	C163.000000,131.378448 163.031570,144.251694 162.962723,157.124420 
	C162.953415,158.864120 162.841202,160.815720 162.056320,162.284195 
	C161.108414,164.057587 159.392365,165.420395 158.008774,166.960907 
	C156.342010,165.188248 154.493942,163.544357 153.098495,161.579041 
	C152.546936,160.802231 153.000381,159.310104 153.000351,158.143677 
	C152.999847,138.647522 152.997925,119.151367 153.004593,99.655212 
	C153.005051,98.325165 152.629150,96.746857 153.205582,95.720581 
	C154.183121,93.980118 155.733490,91.409584 157.130005,91.353546 
	C158.801208,91.286469 161.250031,93.114227 162.168884,94.779633 
	C166.355270,102.367340 170.122650,110.186218 174.283966,118.402351 
	C178.211884,110.548195 181.606522,103.135422 185.638412,96.087173 
	C186.815552,94.029366 189.839890,91.750610 191.962128,91.803337 
	C195.347961,91.887482 196.017120,95.334541 196.013123,98.493423 
	C195.987396,118.822716 195.959564,139.152206 196.036758,159.481247 
	C196.050858,163.197235 194.701920,166.657166 191.152603,166.708511 
	C187.208511,166.765549 185.934158,163.194794 185.961624,159.293762 
	C186.059692,145.368652 186.000000,131.442413 185.325989,117.320534 
	C183.541107,120.985847 181.849731,124.700851 179.938385,128.298981 
	C178.668747,130.689148 177.648926,133.125122 173.929077,133.145370 
	C170.187759,133.165741 169.913635,130.520233 168.738419,128.341888 
	C168.199402,127.342781 167.604889,126.373589 167.000549,125.006432 
z"/>
<path fill="#000000" opacity="1.000000" stroke="none" 
	d="
M105.000000,123.000198 
	C104.999985,135.666718 104.959335,147.833481 105.025093,159.999695 
	C105.044456,163.582932 103.437622,166.454849 100.114937,166.774780 
	C96.578941,167.115250 95.738411,163.575958 95.064224,160.751831 
	C94.762848,159.489380 95.000862,158.097244 95.000626,156.763962 
	C94.999313,149.307816 95.000000,141.851685 95.000000,134.201172 
	C87.203842,134.201172 79.798790,134.201172 72.000000,134.201172 
	C72.000000,136.681870 72.000000,138.971191 72.000000,141.260513 
	C72.000000,146.927124 72.003647,152.593750 71.998947,158.260361 
	C71.994522,163.605515 69.826851,167.549347 66.900177,166.857040 
	C62.391285,165.790482 61.712574,162.078873 61.973083,158.009521 
	C62.121849,155.685730 62.000000,153.344620 62.000000,151.011307 
	C62.000000,136.678101 61.985764,122.344887 62.004475,108.011703 
	C62.019650,96.385826 67.396324,90.944382 78.995651,91.044075 
	C84.230484,91.089058 89.608246,90.950371 94.657974,92.075859 
	C101.541069,93.609962 104.905434,98.612915 104.986389,105.500443 
	C105.052986,111.166313 104.999992,116.833595 105.000000,123.000198 
M72.000000,117.431297 
	C72.000000,119.534203 72.000000,121.637108 72.000000,123.744102 
	C79.924789,123.744102 87.323418,123.744102 94.999481,123.744102 
	C94.999481,117.196472 94.914566,110.899300 95.036987,104.606163 
	C95.094208,101.664665 93.717873,100.900757 91.060951,100.965225 
	C86.070305,101.086334 81.070969,101.115425 76.082436,100.956688 
	C73.110641,100.862114 71.806953,101.855942 71.956314,104.964043 
	C72.139870,108.783638 72.000038,112.618759 72.000000,117.431297 
z"/>
<path fill="#000000" opacity="1.000000" stroke="none" 
	d="
M128.044785,124.000000 
	C133.974640,124.267654 139.579895,123.099213 144.522858,126.868698 
	C147.965775,129.494263 150.045181,132.517838 150.009750,136.909729 
	C149.968140,142.070770 149.583160,147.274277 150.096222,152.384140 
	C150.895935,160.348938 144.397186,166.922668 135.719452,166.988815 
	C128.560547,167.043381 121.400070,166.936737 114.241890,167.027863 
	C110.892548,167.070480 108.430313,165.975449 108.051338,162.422424 
	C107.604965,158.237366 110.898476,157.229538 113.901909,157.098801 
	C120.881554,156.794998 127.889099,156.829224 134.874161,157.061905 
	C139.332642,157.210434 141.302811,155.592987 141.046600,151.028717 
	C140.823013,147.045349 140.929428,143.037888 141.021011,139.044083 
	C141.102463,135.492416 139.486404,134.039520 135.950302,133.951035 
	C129.887344,133.799271 123.770073,133.766510 117.790787,132.894211 
	C111.682976,132.003159 108.038719,127.085487 108.005852,121.074661 
	C107.977631,115.913429 108.416176,110.710205 107.903809,105.600189 
	C107.107483,97.658119 113.604759,91.069756 122.296173,91.010078 
	C129.455170,90.960922 136.615540,91.061302 143.773773,90.973015 
	C147.124496,90.931694 149.583038,92.033501 149.949707,95.593002 
	C150.380981,99.779465 147.103485,100.778320 144.082733,100.905151 
	C137.102188,101.198257 130.095245,101.171066 123.110191,100.938133 
	C118.639259,100.789017 116.672813,102.433281 116.956810,106.987022 
	C117.174026,110.469894 116.993134,113.977180 117.001534,117.473587 
	C117.016083,123.535995 117.467888,123.981918 123.565041,123.999443 
	C124.896996,124.003273 126.228958,124.000000 128.044785,124.000000 
z"/>
<path fill="#000000" opacity="1.000000" stroke="none" 
	d="
M150.999985,38.000000 
	C159.143585,38.000000 166.787186,38.000000 174.714310,38.000000 
	C174.714310,40.952408 174.714310,43.691547 174.714310,46.718979 
	C144.388794,46.718979 113.980515,46.718979 83.285706,46.718979 
	C83.285706,44.048740 83.285706,41.310795 83.285706,38.000000 
	C105.633522,38.000000 128.066757,38.000000 150.999985,38.000000 
z"/>
<path fill="#000000" opacity="1.000000" stroke="none" 
	d="
M161.730499,25.025373 
	C162.463745,27.598902 163.007034,30.171558 162.819534,32.689800 
	C162.756912,33.531033 160.830322,34.894016 159.748550,34.901024 
	C139.256119,35.033756 118.762108,35.049465 98.270576,34.859230 
	C97.171158,34.849022 95.519875,32.981377 95.138130,31.681097 
	C94.597908,29.840986 95.001167,27.723894 95.001167,25.003260 
	C117.122498,25.003260 139.188858,25.003260 161.730499,25.025373 
z"/>
<path fill="#000000" opacity="1.000000" stroke="none" 
	d="
M162.985794,220.000000 
	C136.181015,220.000000 109.873146,220.000000 83.282982,220.000000 
	C83.282982,217.042328 83.282982,214.303253 83.282982,211.278473 
	C113.617577,211.278473 144.026520,211.278473 174.718140,211.278473 
	C174.718140,213.959854 174.718140,216.698883 174.718140,220.000000 
	C171.033798,220.000000 167.258255,220.000000 162.985794,220.000000 
z"/>
<path fill="#000000" opacity="1.000000" stroke="none" 
	d="
M162.982864,225.356857 
	C162.997772,227.984512 162.997772,230.150131 162.997772,232.657837 
	C140.401382,232.657837 117.868752,232.657837 95.400299,232.657837 
	C95.242493,232.442474 95.072197,232.318497 95.069603,232.191116 
	C94.839890,220.884995 94.562805,223.074265 103.854103,223.026840 
	C121.850807,222.934967 139.848709,222.948944 157.844894,223.082565 
	C159.556976,223.095291 161.260468,224.263214 162.982864,225.356857 
z"/>
<path fill="#FFFFFF" opacity="1.000000" stroke="none" 
	d="
M72.000000,116.939240 
	C72.000038,112.618759 72.139870,108.783638 71.956314,104.964043 
	C71.806953,101.855942 73.110641,100.862114 76.082436,100.956688 
	C81.070969,101.115425 86.070305,101.086334 91.060951,100.965225 
	C93.717873,100.900757 95.094208,101.664665 95.036987,104.606163 
	C94.914566,110.899300 94.999481,117.196472 94.999481,123.744102 
	C87.323418,123.744102 79.924789,123.744102 72.000000,123.744102 
	C72.000000,121.637108 72.000000,119.534203 72.000000,116.939240 
z"/>
</svg>