<svg version="1.1" id="Layer_1" xmlns="http://www.w3.org/2000/svg" xmlns:xlink="http://www.w3.org/1999/xlink" x="0px" y="0px"
	 width="100%" viewBox="0 0 1200 1351" enable-background="new 0 0 1200 1351" xml:space="preserve">
<path fill="#659AD2" opacity="1.000000" stroke="none" 
	d="
M578.000000,0.999999 
	C593.021423,1.000000 608.042908,1.000000 623.295898,1.366224 
	C623.882324,2.078175 624.192627,2.658441 624.598389,2.735475 
	C636.029602,4.905482 646.693726,8.886283 656.758362,14.870362 
	C671.010986,23.344484 685.635925,31.189459 700.011047,39.461075 
	C718.173706,49.912113 736.222534,60.560997 754.363220,71.050545 
	C768.575317,79.268471 782.891235,87.307220 797.091614,95.545059 
	C817.335876,107.288979 837.485107,119.196625 857.736389,130.928223 
	C869.822876,137.929932 882.070435,144.653259 894.167847,151.636444 
	C912.180908,162.034454 930.092407,172.608337 948.109131,182.999939 
	C962.330322,191.202332 976.688721,199.166931 990.906982,207.374176 
	C1009.200378,217.933670 1027.395264,228.663635 1045.668823,239.257614 
	C1061.426636,248.393066 1077.243042,257.427338 1093.019165,266.531128 
	C1109.481934,276.031006 1125.748413,285.890015 1142.439209,294.969727 
	C1155.103516,301.859070 1165.710205,311.078400 1175.023682,321.762421 
	C1179.420654,326.806427 1182.366943,333.114807 1185.633301,338.956543 
	C1119.950806,376.763397 1054.614258,414.479004 989.253540,452.152802 
	C975.273254,460.210999 961.205627,468.117706 947.066528,475.753784 
	C873.468872,355.404968 766.489258,289.451630 626.443115,277.068573 
	C601.317810,274.846954 576.182373,276.154297 551.199585,279.279388 
	C523.917603,282.692169 497.136871,288.598389 471.206268,297.871185 
	C367.486053,334.961823 290.830200,402.803711 241.435501,501.197052 
	C217.160645,549.552124 204.630356,601.225952 201.207764,655.039307 
	C200.198196,670.912659 201.343353,686.953796 202.016937,702.896362 
	C203.067032,727.749634 207.572495,752.105774 213.682037,776.174988 
	C222.710251,811.742798 236.915558,845.197937 254.661972,877.053345 
	C252.379257,878.033630 250.411652,878.923096 248.549759,879.996033 
	C221.586044,895.533936 194.642212,911.106262 167.682449,926.650940 
	C117.081589,955.826904 66.473442,984.990112 15.574007,1013.959351 
	C10.047475,1003.060120 4.750350,992.386719 2.672313,980.483032 
	C2.628539,980.232361 1.579866,980.157104 0.999997,980.000000 
	C1.000000,777.645203 1.000000,575.290466 1.313340,372.796082 
	C2.072337,371.999817 2.783527,371.395355 2.924375,370.678772 
	C5.630895,356.908203 11.428296,344.383148 19.155849,332.863831 
	C24.231009,325.298370 29.567036,317.507294 36.330494,311.579102 
	C44.308601,304.586212 53.765266,299.184052 62.916706,293.647278 
	C78.919403,283.965363 95.141739,274.643585 111.340485,265.289429 
	C127.508186,255.953171 143.782059,246.800934 159.968597,237.497086 
	C176.450836,228.023239 192.877167,218.452209 209.339417,208.943542 
	C225.232712,199.763489 241.160522,190.643082 257.036499,181.433243 
	C273.202179,172.055374 289.305817,162.570572 305.468903,153.188232 
	C319.511536,145.036789 333.605957,136.974594 347.665375,128.851990 
	C363.571686,119.662376 379.457794,110.437790 395.365051,101.249748 
	C411.821716,91.744392 428.286652,82.253342 444.760132,72.777168 
	C458.710846,64.752190 472.683929,56.766041 486.638000,48.746857 
	C500.869171,40.568390 515.157654,32.486500 529.295532,24.149500 
	C544.259338,15.325416 558.845581,5.749585 576.502014,2.907152 
	C577.088501,2.812739 577.504517,1.659618 578.000000,0.999999 
z"/>
<path fill="#00315E" opacity="1.000000" stroke="none" 
	d="
M15.868357,1014.158691 
	C66.473442,984.990112 117.081589,955.826904 167.682449,926.650940 
	C194.642212,911.106262 221.586044,895.533936 248.549759,879.996033 
	C250.411652,878.923096 252.379257,878.033630 254.861633,877.321777 
	C309.284607,967.374817 386.183075,1028.013794 485.981171,1059.564453 
	C515.146240,1068.784790 545.177490,1074.272583 575.623047,1075.737793 
	C600.349548,1076.927734 625.289062,1077.386841 649.912781,1073.033813 
	C665.702454,1070.242432 681.626099,1067.953491 697.192017,1064.203735 
	C731.761658,1055.875610 764.419556,1042.642578 795.573120,1025.310303 
	C833.042236,1004.464417 866.114197,978.282288 895.296509,947.016846 
	C915.229614,925.660706 932.108032,902.036011 947.530945,877.115845 
	C956.331970,881.771545 964.867554,886.222107 973.204285,891.018311 
	C999.592957,906.199646 1025.892578,921.535645 1052.254272,936.764038 
	C1082.072754,953.989319 1111.923218,971.159302 1141.755615,988.360535 
	C1156.425903,996.819336 1171.086914,1005.294434 1187.041748,1014.506836 
	C1191.075195,1003.607361 1194.866821,993.263916 1198.767456,982.961792 
	C1199.187622,981.851868 1200.240601,980.981506 1201.000000,980.000000 
	C1201.000000,1103.945312 1201.000000,1227.890503 1201.000000,1352.000000 
	C994.979126,1352.000000 788.958252,1352.000000 582.407471,1351.624756 
	C581.026184,1350.867554 580.204468,1350.387939 579.318787,1350.119263 
	C570.476379,1347.437378 561.142761,1345.804810 552.886841,1341.893799 
	C540.675964,1336.109131 529.186768,1328.785156 517.464539,1321.988525 
	C492.587646,1307.564453 467.786774,1293.009155 442.899902,1278.602295 
	C426.586639,1269.158691 410.142914,1259.940674 393.820465,1250.512817 
	C375.774231,1240.089355 357.826874,1229.494995 339.785400,1219.063354 
	C325.474335,1210.788818 311.055298,1202.701172 296.740173,1194.433716 
	C278.692841,1184.010498 260.731262,1173.438599 242.678131,1163.025635 
	C228.498642,1154.847046 214.194824,1146.883789 200.021286,1138.694946 
	C181.691010,1128.104492 163.456650,1117.348267 145.140793,1106.732666 
	C130.984131,1098.527832 116.749939,1090.456909 102.579041,1082.276489 
	C88.678673,1074.252197 75.013748,1065.794922 60.886250,1058.195557 
	C41.559452,1047.799316 26.334951,1033.479248 15.868357,1014.158691 
z"/>
<path fill="#00599C" opacity="1.000000" stroke="none" 
	d="
M1201.000000,979.531372 
	C1200.240601,980.981506 1199.187622,981.851868 1198.767456,982.961792 
	C1194.866821,993.263916 1191.075195,1003.607361 1187.041748,1014.506836 
	C1171.086914,1005.294434 1156.425903,996.819336 1141.755615,988.360535 
	C1111.923218,971.159302 1082.072754,953.989319 1052.254272,936.764038 
	C1025.892578,921.535645 999.592957,906.199646 973.204285,891.018311 
	C964.867554,886.222107 956.331970,881.771545 947.430542,876.771484 
	C946.605164,876.046448 946.282349,875.633850 945.861572,875.390259 
	C889.634216,842.836487 833.404175,810.287415 777.131531,777.812073 
	C776.099609,777.216492 774.557251,777.505493 773.147339,777.021973 
	C771.595947,775.393494 770.311401,773.848083 768.679993,772.898682 
	C750.311707,762.208557 731.892456,751.605896 713.482300,740.987854 
	C688.456177,726.554016 663.397339,712.176575 638.409973,697.676025 
	C626.212158,690.597534 614.144226,683.295288 602.250244,675.844238 
	C644.337952,651.391785 686.207336,627.214294 728.040405,602.973938 
	C743.405762,594.070374 758.685059,585.018250 774.362183,576.009827 
	C808.241760,556.649536 841.784851,537.351440 875.276367,517.964172 
	C899.279480,504.069397 923.213440,490.055145 947.178284,476.094177 
	C961.205627,468.117706 975.273254,460.210999 989.253540,452.152802 
	C1054.614258,414.479004 1119.950806,376.763397 1185.955322,339.121857 
	C1190.733887,349.297485 1194.830200,359.423523 1199.010742,369.514679 
	C1199.400757,370.456268 1200.324219,371.176849 1201.000000,372.000000 
	C1201.000000,574.354248 1201.000000,776.708435 1201.000000,979.531372 
M1123.108521,741.073242 
	C1123.108521,726.984497 1123.108521,712.895752 1123.108521,698.172791 
	C1138.327759,698.172791 1152.870605,698.172791 1167.436401,698.172791 
	C1167.436401,683.122742 1167.436401,668.717773 1167.436401,653.809448 
	C1152.559326,653.809448 1137.992188,653.809448 1123.034424,653.809448 
	C1123.034424,638.879211 1123.034424,624.450867 1123.034424,609.794373 
	C1108.222778,609.794373 1093.815918,609.794373 1078.837402,609.794373 
	C1078.837402,624.524902 1078.837402,639.082397 1078.837402,654.140259 
	C1063.712891,654.140259 1049.151489,654.140259 1034.548828,654.140259 
	C1034.548828,669.070435 1034.548828,683.483093 1034.548828,698.487061 
	C1049.415894,698.487061 1063.991577,698.487061 1078.860107,698.487061 
	C1078.860107,706.225281 1078.832520,713.372742 1078.867798,720.519897 
	C1078.903198,727.677490 1079.001221,734.834778 1079.032715,742.543091 
	C1079.357666,742.622803 1079.682739,742.702515 1080.936768,742.904114 
	C1094.619141,742.863464 1108.301636,742.822815 1122.527466,742.889343 
	C1122.661011,742.591125 1122.794434,742.292847 1123.108521,741.073242 
M956.601440,736.321533 
	C956.601440,723.860596 956.601440,711.399658 956.601440,698.312195 
	C971.633545,698.312195 986.169617,698.312195 1000.773865,698.312195 
	C1000.773865,683.258606 1000.773865,668.839294 1000.773865,653.903687 
	C985.990356,653.903687 971.424011,653.903687 956.433777,653.903687 
	C956.433777,638.961060 956.433777,624.532349 956.433777,609.920898 
	C941.468689,609.920898 926.941345,609.920898 912.014221,609.920898 
	C912.014221,624.700073 912.014221,639.121704 912.014221,654.088684 
	C897.066956,654.088684 882.512207,654.088684 868.038574,654.088684 
	C868.038574,669.069031 868.038574,683.494202 868.038574,698.383423 
	C882.734131,698.383423 897.151306,698.383423 912.095093,698.383423 
	C912.095093,713.399353 912.095093,727.958862 912.095093,742.557678 
	C927.164551,742.557678 941.693909,742.557678 956.601379,742.557678 
	C956.601379,740.557922 956.601379,738.913086 956.601440,736.321533 
z"/>
<path fill="#000000" opacity="1.000000" stroke="none" 
	d="
M15.574017,1013.959351 
	C26.334951,1033.479248 41.559452,1047.799316 60.886250,1058.195557 
	C75.013748,1065.794922 88.678673,1074.252197 102.579041,1082.276489 
	C116.749939,1090.456909 130.984131,1098.527832 145.140793,1106.732666 
	C163.456650,1117.348267 181.691010,1128.104492 200.021286,1138.694946 
	C214.194824,1146.883789 228.498642,1154.847046 242.678131,1163.025635 
	C260.731262,1173.438599 278.692841,1184.010498 296.740173,1194.433716 
	C311.055298,1202.701172 325.474335,1210.788818 339.785400,1219.063354 
	C357.826874,1229.494995 375.774231,1240.089355 393.820465,1250.512817 
	C410.142914,1259.940674 426.586639,1269.158691 442.899902,1278.602295 
	C467.786774,1293.009155 492.587646,1307.564453 517.464539,1321.988525 
	C529.186768,1328.785156 540.675964,1336.109131 552.886841,1341.893799 
	C561.142761,1345.804810 570.476379,1347.437378 579.318787,1350.119263 
	C580.204468,1350.387939 581.026184,1350.867554 581.938782,1351.624756 
	C388.422272,1352.000000 194.844528,1352.000000 1.000000,1352.000000 
	C1.000000,1228.312622 1.000000,1104.625000 0.999997,980.468628 
	C1.579866,980.157104 2.628539,980.232361 2.672313,980.483032 
	C4.750350,992.386719 10.047475,1003.060120 15.574017,1013.959351 
z"/>
<path fill="#000000" opacity="1.000000" stroke="none" 
	d="
M577.531372,0.999999 
	C577.504517,1.659618 577.088501,2.812739 576.502014,2.907152 
	C558.845581,5.749585 544.259338,15.325416 529.295532,24.149500 
	C515.157654,32.486500 500.869171,40.568390 486.638000,48.746857 
	C472.683929,56.766041 458.710846,64.752190 444.760132,72.777168 
	C428.286652,82.253342 411.821716,91.744392 395.365051,101.249748 
	C379.457794,110.437790 363.571686,119.662376 347.665375,128.851990 
	C333.605957,136.974594 319.511536,145.036789 305.468903,153.188232 
	C289.305817,162.570572 273.202179,172.055374 257.036499,181.433243 
	C241.160522,190.643082 225.232712,199.763489 209.339417,208.943542 
	C192.877167,218.452209 176.450836,228.023239 159.968597,237.497086 
	C143.782059,246.800934 127.508186,255.953171 111.340485,265.289429 
	C95.141739,274.643585 78.919403,283.965363 62.916706,293.647278 
	C53.765266,299.184052 44.308601,304.586212 36.330494,311.579102 
	C29.567036,317.507294 24.231009,325.298370 19.155849,332.863831 
	C11.428296,344.383148 5.630895,356.908203 2.924375,370.678772 
	C2.783527,371.395355 2.072337,371.999817 1.313340,372.328247 
	C1.000000,248.390411 1.000000,124.780815 1.000000,1.000000 
	C193.020859,1.000000 385.041779,1.000000 577.531372,0.999999 
z"/>
<path fill="#000000" opacity="1.000000" stroke="none" 
	d="
M1201.000000,371.531342 
	C1200.324219,371.176849 1199.400757,370.456268 1199.010742,369.514679 
	C1194.830200,359.423523 1190.733887,349.297485 1186.292480,339.015625 
	C1182.366943,333.114807 1179.420654,326.806427 1175.023682,321.762421 
	C1165.710205,311.078400 1155.103516,301.859070 1142.439209,294.969727 
	C1125.748413,285.890015 1109.481934,276.031006 1093.019165,266.531128 
	C1077.243042,257.427338 1061.426636,248.393066 1045.668823,239.257614 
	C1027.395264,228.663635 1009.200378,217.933670 990.906982,207.374176 
	C976.688721,199.166931 962.330322,191.202332 948.109131,182.999939 
	C930.092407,172.608337 912.180908,162.034454 894.167847,151.636444 
	C882.070435,144.653259 869.822876,137.929932 857.736389,130.928223 
	C837.485107,119.196625 817.335876,107.288979 797.091614,95.545059 
	C782.891235,87.307220 768.575317,79.268471 754.363220,71.050545 
	C736.222534,60.560997 718.173706,49.912113 700.011047,39.461075 
	C685.635925,31.189459 671.010986,23.344484 656.758362,14.870362 
	C646.693726,8.886283 636.029602,4.905482 624.598389,2.735475 
	C624.192627,2.658441 623.882324,2.078175 623.763794,1.366224 
	C816.244568,1.000000 1008.489197,1.000000 1201.000000,1.000000 
	C1201.000000,124.354103 1201.000000,247.708389 1201.000000,371.531342 
z"/>
<path fill="#FFFFFF" opacity="1.000000" stroke="none" 
	d="
M773.253052,777.381775 
	C774.557251,777.505493 776.099609,777.216492 777.131531,777.812073 
	C833.404175,810.287415 889.634216,842.836487 945.861572,875.390259 
	C946.282349,875.633850 946.605164,876.046448 947.074097,876.724548 
	C932.108032,902.036011 915.229614,925.660706 895.296509,947.016846 
	C866.114197,978.282288 833.042236,1004.464417 795.573120,1025.310303 
	C764.419556,1042.642578 731.761658,1055.875610 697.192017,1064.203735 
	C681.626099,1067.953491 665.702454,1070.242432 649.912781,1073.033813 
	C625.289062,1077.386841 600.349548,1076.927734 575.623047,1075.737793 
	C545.177490,1074.272583 515.146240,1068.784790 485.981171,1059.564453 
	C386.183075,1028.013794 309.284607,967.374817 255.225891,877.316223 
	C236.915558,845.197937 222.710251,811.742798 213.682037,776.174988 
	C207.572495,752.105774 203.067032,727.749634 202.016937,702.896362 
	C201.343353,686.953796 200.198196,670.912659 201.207764,655.039307 
	C204.630356,601.225952 217.160645,549.552124 241.435501,501.197052 
	C290.830200,402.803711 367.486053,334.961823 471.206268,297.871185 
	C497.136871,288.598389 523.917603,282.692169 551.199585,279.279388 
	C576.182373,276.154297 601.317810,274.846954 626.443115,277.068573 
	C766.489258,289.451630 873.468872,355.404968 947.066528,475.753784 
	C923.213440,490.055145 899.279480,504.069397 875.276367,517.964172 
	C841.784851,537.351440 808.241760,556.649536 774.236633,575.687012 
	C762.480103,557.352600 749.573547,540.807983 733.413330,526.676941 
	C713.092651,508.907806 690.343262,495.658997 664.922180,487.004364 
	C641.733398,479.109802 617.895325,474.961334 593.295227,477.039001 
	C581.891602,478.002167 570.333252,478.507721 559.178528,480.825836 
	C473.202057,498.693329 408.122223,573.132751 401.709473,660.372009 
	C398.808838,699.832092 406.694214,736.832397 425.331848,771.622437 
	C426.032532,772.930420 427.348053,773.908997 428.292664,775.436035 
	C433.783783,784.241455 438.717682,793.171875 445.041046,800.976501 
	C480.744141,845.043091 527.283020,869.818115 583.434265,875.712769 
	C600.734680,877.528870 618.355591,876.477722 635.741394,873.155640 
	C664.880005,867.587952 691.726685,856.788818 715.948425,839.692200 
	C739.506409,823.064331 758.984131,802.596069 773.253052,777.381775 
z"/>
<path fill="#659AD2" opacity="1.000000" stroke="none" 
	d="
M428.377075,775.041077 
	C427.348053,773.908997 426.032532,772.930420 425.331848,771.622437 
	C406.694214,736.832397 398.808838,699.832092 401.709473,660.372009 
	C408.122223,573.132751 473.202057,498.693329 559.178528,480.825836 
	C570.333252,478.507721 581.891602,478.002167 593.295227,477.039001 
	C617.895325,474.961334 641.733398,479.109802 664.922180,487.004364 
	C690.343262,495.658997 713.092651,508.907806 733.413330,526.676941 
	C749.573547,540.807983 762.480103,557.352600 773.878052,575.711060 
	C758.685059,585.018250 743.405762,594.070374 728.040405,602.973938 
	C686.207336,627.214294 644.337952,651.391785 601.912964,675.918579 
	C600.323669,676.802124 599.293274,677.342102 598.286499,677.923096 
	C543.602234,709.483276 488.923889,741.053833 434.220093,772.580200 
	C432.403198,773.627380 430.330566,774.230835 428.377075,775.041077 
z"/>
<path fill="#004482" opacity="1.000000" stroke="none" 
	d="
M428.292664,775.436035 
	C430.330566,774.230835 432.403198,773.627380 434.220093,772.580200 
	C488.923889,741.053833 543.602234,709.483276 598.286499,677.923096 
	C599.293274,677.342102 600.323669,676.802124 601.680298,676.168701 
	C614.144226,683.295288 626.212158,690.597534 638.409973,697.676025 
	C663.397339,712.176575 688.456177,726.554016 713.482300,740.987854 
	C731.892456,751.605896 750.311707,762.208557 768.679993,772.898682 
	C770.311401,773.848083 771.595947,775.393494 773.147339,777.021973 
	C758.984131,802.596069 739.506409,823.064331 715.948425,839.692200 
	C691.726685,856.788818 664.880005,867.587952 635.741394,873.155640 
	C618.355591,876.477722 600.734680,877.528870 583.434265,875.712769 
	C527.283020,869.818115 480.744141,845.043091 445.041046,800.976501 
	C438.717682,793.171875 433.783783,784.241455 428.292664,775.436035 
z"/>
<path fill="#FFFFFF" opacity="1.000000" stroke="none" 
	d="
M956.601440,736.794922 
	C956.601379,738.913086 956.601379,740.557922 956.601379,742.557678 
	C941.693909,742.557678 927.164551,742.557678 912.095093,742.557678 
	C912.095093,727.958862 912.095093,713.399353 912.095093,698.383423 
	C897.151306,698.383423 882.734131,698.383423 868.038574,698.383423 
	C868.038574,683.494202 868.038574,669.069031 868.038574,654.088684 
	C882.512207,654.088684 897.066956,654.088684 912.014221,654.088684 
	C912.014221,639.121704 912.014221,624.700073 912.014221,609.920898 
	C926.941345,609.920898 941.468689,609.920898 956.433777,609.920898 
	C956.433777,624.532349 956.433777,638.961060 956.433777,653.903687 
	C971.424011,653.903687 985.990356,653.903687 1000.773865,653.903687 
	C1000.773865,668.839294 1000.773865,683.258606 1000.773865,698.312195 
	C986.169617,698.312195 971.633545,698.312195 956.601440,698.312195 
	C956.601440,711.399658 956.601440,723.860596 956.601440,736.794922 
z"/>
<path fill="#FFFFFF" opacity="1.000000" stroke="none" 
	d="
M1121.984009,742.782166 
	C1108.301636,742.822815 1094.619141,742.863464 1080.348633,742.676147 
	C1079.565430,742.243896 1079.335938,742.091919 1079.071777,741.992188 
	C1079.001221,734.834778 1078.903198,727.677490 1078.867798,720.519897 
	C1078.832520,713.372742 1078.860107,706.225281 1078.860107,698.487061 
	C1063.991577,698.487061 1049.415894,698.487061 1034.548828,698.487061 
	C1034.548828,683.483093 1034.548828,669.070435 1034.548828,654.140259 
	C1049.151489,654.140259 1063.712891,654.140259 1078.837402,654.140259 
	C1078.837402,639.082397 1078.837402,624.524902 1078.837402,609.794373 
	C1093.815918,609.794373 1108.222778,609.794373 1123.034424,609.794373 
	C1123.034424,624.450867 1123.034424,638.879211 1123.034424,653.809448 
	C1137.992188,653.809448 1152.559326,653.809448 1167.436401,653.809448 
	C1167.436401,668.717773 1167.436401,683.122742 1167.436401,698.172791 
	C1152.870605,698.172791 1138.327759,698.172791 1123.108521,698.172791 
	C1123.108521,712.895752 1123.108521,726.984497 1122.832275,741.628235 
	C1122.318848,742.338501 1122.128174,742.538147 1121.984009,742.782166 
z"/>
<path fill="#DDE9F2" opacity="1.000000" stroke="none" 
	d="
M1079.052246,742.267639 
	C1079.335938,742.091919 1079.565430,742.243896 1079.884033,742.615173 
	C1079.682739,742.702515 1079.357666,742.622803 1079.052246,742.267639 
z"/>
<path fill="#DDE9F2" opacity="1.000000" stroke="none" 
	d="
M1122.255737,742.835754 
	C1122.128174,742.538147 1122.318848,742.338501 1122.741943,742.088928 
	C1122.794434,742.292847 1122.661011,742.591125 1122.255737,742.835754 
z"/>
</svg>